<!DOCTYPE svg PUBLIC "-//W3C//DTD SVG 1.1//EN" "http://www.w3.org/Graphics/SVG/1.1/DTD/svg11.dtd">
<!-- Uploaded to: SVG Repo, www.svgrepo.com, Transformed by: SVG Repo Mixer Tools -->
<svg width="800px" height="800px" viewBox="0 0 960 960" fill="none" xmlns="http://www.w3.org/2000/svg">
<g id="SVGRepo_bgCarrier" stroke-width="0"/>
<g id="SVGRepo_tracerCarrier" stroke-linecap="round" stroke-linejoin="round"/>
<g id="SVGRepo_iconCarrier"> <path d="M355.221 180.921C338.344 138.076 305.134 105.01 265.458 82.9003C242.182 65.2233 264.863 29.5183 290.479 43.7913C335.46 73.3973 372.925 114.027 394.073 164.07C395.72 168.03 397.971 168.58 401.929 168.548C467.34 156.58 529.453 206.734 525.588 274.79C525.35 278.454 525.143 281.066 529.428 282.955C639.755 332.538 731.701 412.906 829.362 482.72C858.532 504.797 877.373 533.065 879.04 571.554C882.249 645.631 883.437 719.688 879.871 793.749C875.671 865.458 849.003 932.855 763.888 917.221C639.465 904.226 515.263 889.601 391.754 869.601C305.737 856.382 217.433 850.495 135.828 817.894C56.2411 787.446 80.625 728.326 84.424 661.911C91.658 571.949 95.1081 481.831 95.6951 391.59C95.9481 379.193 96.307 366.759 97.536 354.433C98.678 342.983 107.319 338.111 117.318 335.432C167.826 321.822 218.531 308.929 268.977 295.097C271.322 294.443 274.573 291.539 274.757 289.446C278 238.45 312.28 204.277 355.221 180.921ZM131.571 670.887C133.169 710.049 111.533 757.049 160.858 771.202C292.576 813.212 432.505 818.546 568.203 841.683C641.616 851.111 715.217 859.112 788.789 867.206C824.484 869.87 826.243 807.091 828.986 781.857C799.816 781.597 771.425 775.891 742.535 772.521C538.934 737.13 331.074 727.897 131.571 670.887ZM140.546 554.174C140.124 554.294 139.701 554.414 139.279 554.533C138.022 576.147 136.622 597.755 135.751 619.384C135.672 621.347 138.646 624.651 140.797 625.271C366.456 684.493 599.97 701.148 830.173 735.557C830.173 709.203 830.173 683.221 830.173 657.238C829.245 656.536 828.317 655.833 827.389 655.131C820.081 668.732 799.453 681.555 786.922 691.029C727.248 729.714 669.352 676.165 638.641 626.555C626.078 610.382 621.237 609.536 604.759 621.937C592.939 630.832 582.43 641.495 570.459 650.156C487.055 712.342 467.369 619.773 440.093 559.124C413.591 579.276 398.899 609.221 374.668 631.568C343.534 662.328 291.247 646.51 280.319 604.95C273.435 584.562 270.512 565.864 263.736 544.685C218.895 572.617 170.334 637.353 140.546 554.174ZM368.986 221.783C297.664 257.755 308.084 365.421 394.616 361.361C490.325 354.477 518.445 215.552 409.187 207.262C408.554 229.801 404.965 237.221 394.397 239.754C383.601 242.343 377.485 238.096 368.986 221.783Z" fill="#fa9600"/> <path d="M131.572 670.887C331.071 727.896 538.937 737.131 742.535 772.522C771.433 775.893 799.798 781.595 828.986 781.858C826.473 806.934 824.164 870.074 788.791 867.208C715.217 859.113 641.616 851.111 568.204 841.678C432.504 818.546 292.58 813.212 160.858 771.208C111.471 756.912 133.182 710.228 131.572 670.887Z" fill="white"/> <path d="M140.547 554.175C170.36 637.376 218.907 572.591 263.737 544.688C270.503 565.851 273.435 584.576 280.317 604.954C291.255 646.502 343.534 662.341 374.671 631.569C398.908 609.213 413.578 579.287 440.093 559.126C467.429 619.849 487 712.316 570.461 650.156C582.431 641.496 592.94 630.835 604.76 621.94C621.238 609.539 626.079 610.385 638.64 626.56C669.298 676.152 727.335 729.728 786.923 691.027C799.745 682.821 811.092 672.271 822.871 662.495C824.969 660.754 825.913 657.623 827.39 655.133C828.318 655.835 829.246 656.538 830.174 657.24C830.174 683.222 830.174 709.204 830.174 735.558C599.973 701.149 366.455 684.493 140.798 625.274C138.648 624.652 135.673 621.348 135.752 619.385C136.623 597.756 138.023 576.148 139.28 554.534C139.702 554.415 140.124 554.295 140.547 554.175Z" fill="white"/> <path d="M368.982 221.782C377.481 238.096 383.597 242.342 394.393 239.754C404.961 237.22 408.549 229.801 409.183 207.262C518.458 215.558 490.296 354.499 394.609 361.363C308.067 365.397 297.663 257.756 368.982 221.782Z" fill="white"/> </g>
</svg>